<svg width="49" height="48" viewBox="0 0 49 48" fill="none" xmlns="http://www.w3.org/2000/svg">
<path fill-rule="evenodd" clip-rule="evenodd" d="M24.1629 28.2854L28.571 23.8774C29.7884 22.6599 30.0902 20.8 29.3203 19.2601L29.0705 18.7605C28.3005 17.2206 28.6023 15.3607 29.8198 14.1433L35.2854 8.67766C35.6759 8.28713 36.3091 8.28713 36.6996 8.67766C36.7756 8.75366 36.8389 8.84142 36.8869 8.93755L39.0949 13.3535C40.784 16.7317 40.1219 20.8117 37.4512 23.4824L25.4535 35.4801C22.5464 38.3872 18.2464 39.4023 14.3461 38.1022L9.51717 36.4925C8.99323 36.3179 8.71007 35.7516 8.88472 35.2276C8.93381 35.0804 9.01652 34.9465 9.12629 34.8367L14.4288 29.5342C15.6463 28.3168 17.5062 28.0149 19.0461 28.7849L19.5456 29.0347C21.0856 29.8047 22.9455 29.5028 24.1629 28.2854Z" fill="black"/>
</svg>
