<svg width="31" height="36" viewBox="0 0 31 36" fill="none" xmlns="http://www.w3.org/2000/svg">
<path fill-rule="evenodd" clip-rule="evenodd" d="M14.6899 35.1847C11.3613 32.3378 0.666626 22.5994 0.666626 15C0.666626 6 6.66663 0 15.6666 0C24.6666 0 30.6666 7.5 30.6666 15C30.6666 21.3634 19.8684 32.0462 16.5956 35.1378C16.0618 35.6421 15.248 35.662 14.6899 35.1847ZM20.6666 13C20.6666 15.7614 18.428 18 15.6666 18C12.9052 18 10.6666 15.7614 10.6666 13C10.6666 10.2386 12.9052 8 15.6666 8C18.428 8 20.6666 10.2386 20.6666 13Z" fill="black"/>
</svg>
