<svg width="114" height="48" viewBox="0 0 114 48" fill="none" xmlns="http://www.w3.org/2000/svg">
<path d="M17.0526 44H0.421053C0.188512 44 0 44.1885 0 44.4211V45.4737C0 45.7062 0.188512 45.8947 0.421053 45.8947H18.9717C19.2042 45.8947 19.3927 45.7062 19.3927 45.4737V2.31579C19.3927 2.08325 19.5812 1.89474 19.8138 1.89474H46.8543C47.0868 1.89474 47.2753 2.08325 47.2753 2.31579V45.4737C47.2753 45.7062 47.4638 45.8947 47.6964 45.8947H113.263C113.496 45.8947 113.684 45.7062 113.684 45.4737V44.4211C113.684 44.1885 113.496 44 113.263 44H49.6842C49.4517 44 49.2632 43.8115 49.2632 43.5789V0.421053C49.2632 0.188512 49.0746 0 48.8421 0H17.8947C17.6622 0 17.4737 0.18851 17.4737 0.421051V43.5789C17.4737 43.8115 17.2852 44 17.0526 44Z" fill="#9B090A"/>
<path d="M26.1053 9.0304C26.1053 8.05594 26.7741 7.20882 27.7219 6.98263L42.0377 3.56636C43.3609 3.25061 44.6317 4.25381 44.6317 5.61413V44.9621C44.6317 46.432 43.1635 47.4494 41.7872 46.9333L27.4714 41.5649C26.6497 41.2568 26.1053 40.4712 26.1053 39.5937V9.0304Z" fill="#EDBC00"/>
<path d="M30.1053 21.8947L30.5307 23.204H31.9073L30.7936 24.0131L31.219 25.3224L30.1053 24.5132L28.9916 25.3224L29.417 24.0131L28.3033 23.204H29.6799L30.1053 21.8947Z" fill="white"/>
<path d="M53.3638 25.5789L59.6493 11.3305H61.1044L67.4909 25.5789H65.7528L63.9743 21.5166L64.7221 21.9411H56.0114L56.8198 21.5166L55.0817 25.5789H53.3638ZM60.3566 13.2505L57.0825 20.9305L56.5975 20.5667H64.1158L63.752 20.9305L60.3971 13.2505H60.3566ZM68.5335 25.5789V24.3461L77.1634 12.1187V12.7655H68.5335V11.3305H78.7601V12.5634L70.1099 24.7705V24.144H78.9824V25.5789H68.5335ZM81.4825 25.5789V11.3305H87.1818C88.6909 11.3305 89.8564 11.6539 90.6783 12.3006C91.5002 12.9474 91.9111 13.8636 91.9111 15.0493C91.9111 15.9385 91.6416 16.6796 91.1027 17.2724C90.5772 17.8653 89.8429 18.256 88.8997 18.4446V18.1617C89.9507 18.2829 90.7726 18.6467 91.3654 19.2531C91.9717 19.8459 92.2749 20.6476 92.2749 21.6581C92.2749 22.9246 91.8505 23.8947 91.0016 24.5684C90.1663 25.2421 88.9806 25.5789 87.4446 25.5789H81.4825ZM83.1195 24.2248H87.2829C88.3069 24.2248 89.1153 24.0295 89.7082 23.6387C90.3145 23.2345 90.6176 22.5676 90.6176 21.6379C90.6176 20.6947 90.3145 20.0278 89.7082 19.6371C89.1153 19.2328 88.3069 19.0307 87.2829 19.0307H83.1195V24.2248ZM83.1195 17.6968H86.9393C88.0442 17.6968 88.8728 17.4813 89.4252 17.0501C89.9776 16.6189 90.2538 15.9992 90.2538 15.1907C90.2538 14.3554 89.9776 13.7288 89.4252 13.3112C88.8728 12.88 88.0442 12.6644 86.9393 12.6644H83.1195V17.6968ZM93.6467 25.5789L99.9322 11.3305H101.387L107.774 25.5789H106.036L104.257 21.5166L105.005 21.9411H96.2943L97.1027 21.5166L95.3646 25.5789H93.6467ZM100.64 13.2505L97.3654 20.9305L96.8804 20.5667H104.399L104.035 20.9305L100.68 13.2505H100.64Z" fill="black"/>
<path d="M56.7756 33.429C56.2546 33.429 55.8189 33.3325 55.4686 33.1394C55.1183 32.9462 54.8556 32.6678 54.6804 32.304C54.5053 31.9402 54.4177 31.5045 54.4177 30.997C54.4177 30.494 54.5098 30.0606 54.6939 29.6968C54.878 29.333 55.143 29.0523 55.4888 28.8547C55.8347 28.6571 56.2524 28.5583 56.7419 28.5583C57.0877 28.5583 57.3864 28.61 57.6379 28.7132C57.8939 28.8121 58.1229 28.9603 58.3251 29.1579L58.1162 29.5958C57.968 29.4655 57.8243 29.3622 57.6851 29.2859C57.5503 29.2095 57.4088 29.1534 57.2606 29.1175C57.1124 29.077 56.9395 29.0568 56.7419 29.0568C56.1805 29.0568 55.7493 29.2275 55.4484 29.5688C55.152 29.9057 55.0038 30.384 55.0038 31.0038C55.0038 31.6281 55.1475 32.1064 55.4349 32.4387C55.7269 32.7711 56.1782 32.9373 56.7891 32.9373C57.0136 32.9373 57.2269 32.917 57.4291 32.8766C57.6356 32.8317 57.8355 32.7688 58.0286 32.688L57.9074 32.9911V31.3204H56.6947V30.8825H58.3857V33.0855C58.1926 33.1888 57.9478 33.2718 57.6514 33.3347C57.3594 33.3976 57.0675 33.429 56.7756 33.429ZM66.931 33.3684V28.6189H68.8712C69.3697 28.6189 69.756 28.738 70.0299 28.976C70.3039 29.2095 70.4409 29.5374 70.4409 29.9596C70.4409 30.238 70.378 30.4761 70.2523 30.6737C70.131 30.8668 69.9581 31.015 69.7335 31.1183C69.5135 31.2216 69.2552 31.2733 68.9588 31.2733L69.0801 31.1857H69.2148C69.3989 31.1857 69.5629 31.2306 69.7066 31.3204C69.8548 31.4102 69.9716 31.5607 70.0569 31.7718L70.7306 33.3684H70.1175L69.4708 31.7987C69.3944 31.5966 69.2799 31.4664 69.1272 31.408C68.9745 31.3451 68.7836 31.3137 68.5546 31.3137H67.4902V33.3684H66.931ZM67.4902 30.8758H68.7904C69.1497 30.8758 69.4214 30.7994 69.6055 30.6467C69.7942 30.4895 69.8885 30.265 69.8885 29.973C69.8885 29.6811 69.7942 29.4588 69.6055 29.3061C69.4214 29.1534 69.1497 29.077 68.7904 29.077H67.4902V30.8758ZM78.7979 30.9903C78.7979 30.4873 78.8833 30.0561 79.0539 29.6968C79.2291 29.333 79.4784 29.0523 79.8017 28.8547C80.1296 28.6571 80.5226 28.5583 80.9807 28.5583C81.4253 28.5583 81.8116 28.6571 82.1394 28.8547C82.4673 29.0523 82.7188 29.333 82.8939 29.6968C83.0736 30.0561 83.1634 30.485 83.1634 30.9836C83.1634 31.4866 83.0736 31.92 82.8939 32.2838C82.7143 32.6476 82.4605 32.9305 82.1327 33.1326C81.8093 33.3302 81.4253 33.429 80.9807 33.429C80.5226 33.429 80.1318 33.3302 79.8085 33.1326C79.4851 32.9305 79.2358 32.6476 79.0607 32.2838C78.8855 31.92 78.7979 31.4888 78.7979 30.9903ZM79.3841 30.9903C79.3841 31.6011 79.5188 32.0794 79.7883 32.4253C80.0577 32.7666 80.4552 32.9373 80.9807 32.9373C81.4837 32.9373 81.8744 32.7666 82.1529 32.4253C82.4358 32.0794 82.5773 31.6011 82.5773 30.9903C82.5773 30.375 82.4381 29.8989 82.1596 29.5621C81.8812 29.2208 81.4882 29.0501 80.9807 29.0501C80.4552 29.0501 80.0577 29.2208 79.7883 29.5621C79.5188 29.8989 79.3841 30.375 79.3841 30.9903ZM93.4604 33.429C92.8182 33.429 92.3399 33.2651 92.0255 32.9373C91.7156 32.6094 91.5606 32.1266 91.5606 31.4888V28.6189H92.1131V31.4619C92.1131 31.9514 92.2208 32.3197 92.4364 32.5667C92.652 32.8137 92.9933 32.9373 93.4604 32.9373C93.9006 32.9373 94.2352 32.8137 94.4642 32.5667C94.6933 32.3197 94.8078 31.9514 94.8078 31.4619V28.6189H95.3602V31.4888C95.3602 32.1266 95.1985 32.6094 94.8752 32.9373C94.5563 33.2651 94.0847 33.429 93.4604 33.429ZM103.919 33.3684V28.6189H105.853C106.351 28.6189 106.735 28.7402 107.005 28.9827C107.274 29.2208 107.409 29.5531 107.409 29.9798C107.409 30.3975 107.274 30.7298 107.005 30.9768C106.735 31.2194 106.351 31.3406 105.853 31.3406H104.478V33.3684H103.919ZM104.478 30.8758H105.799C106.145 30.8758 106.405 30.7972 106.58 30.64C106.76 30.4828 106.85 30.2627 106.85 29.9798C106.85 29.6923 106.76 29.47 106.58 29.3128C106.405 29.1556 106.145 29.077 105.799 29.077H104.478V30.8758Z" fill="black"/>
</svg>
