<svg width="48" height="48" viewBox="0 0 48 48" fill="none" xmlns="http://www.w3.org/2000/svg">
<path fill-rule="evenodd" clip-rule="evenodd" d="M8 12C6.89543 12 6 12.8954 6 14V36C6 37.1046 6.89543 38 8 38H40C41.1046 38 42 37.1046 42 36V14C42 12.8954 41.1046 12 40 12H8ZM38.3207 16.2889C37.9279 15.5594 37.0183 15.2865 36.2888 15.6793L24 22.2964L11.7111 15.6793C10.9817 15.2865 10.0721 15.5594 9.67929 16.2889C9.28654 17.0183 9.55944 17.9279 10.2889 18.3207L23.2888 25.3207C23.7328 25.5598 24.2672 25.5598 24.7111 25.3207L37.7111 18.3207C38.4406 17.9279 38.7135 17.0183 38.3207 16.2889Z" fill="black"/>
</svg>
